<mxfile host="app.diagrams.net" modified="2022-10-24T20:21:55.590Z" agent="5.0 (X11; Linux x86_64) AppleWebKit/537.36 (KHTML, like Gecko) Chrome/106.0.0.0 Safari/537.36" etag="8xqpfKggh8zx6x0LvFVj" version="20.5.1" type="github">
  <diagram id="R2lEEEUBdFMjLlhIrx00" name="Page-1">
    <mxGraphModel dx="2447" dy="2025" grid="1" gridSize="10" guides="1" tooltips="1" connect="1" arrows="1" fold="1" page="1" pageScale="1" pageWidth="850" pageHeight="1100" math="0" shadow="0" extFonts="Permanent Marker^https://fonts.googleapis.com/css?family=Permanent+Marker">
      <root>
        <mxCell id="0" />
        <mxCell id="1" parent="0" />
        <mxCell id="mc-ZGPXS3bzHDEpSmZdM-4" value="" style="edgeStyle=orthogonalEdgeStyle;rounded=0;orthogonalLoop=1;jettySize=auto;html=1;entryX=0;entryY=0.25;entryDx=0;entryDy=0;" parent="1" source="mc-ZGPXS3bzHDEpSmZdM-1" target="mc-ZGPXS3bzHDEpSmZdM-3" edge="1">
          <mxGeometry relative="1" as="geometry">
            <Array as="points">
              <mxPoint x="630" y="-50" />
              <mxPoint x="630" y="-165" />
            </Array>
          </mxGeometry>
        </mxCell>
        <mxCell id="mc-ZGPXS3bzHDEpSmZdM-54" value="назначил преемником" style="edgeLabel;html=1;align=center;verticalAlign=middle;resizable=0;points=[];" parent="mc-ZGPXS3bzHDEpSmZdM-4" vertex="1" connectable="0">
          <mxGeometry x="-0.4147" y="-2" relative="1" as="geometry">
            <mxPoint x="-12" y="-58" as="offset" />
          </mxGeometry>
        </mxCell>
        <mxCell id="mc-ZGPXS3bzHDEpSmZdM-1" value="&lt;b&gt;Борис Ельцын&lt;br&gt;&lt;/b&gt;президент РФ" style="rounded=0;whiteSpace=wrap;html=1;" parent="1" vertex="1">
          <mxGeometry x="455" y="-80" width="120" height="60" as="geometry" />
        </mxCell>
        <mxCell id="mc-ZGPXS3bzHDEpSmZdM-3" value="&lt;b&gt;Владимир Путин&lt;br&gt;&lt;/b&gt;премьер-министр" style="rounded=0;whiteSpace=wrap;html=1;" parent="1" vertex="1">
          <mxGeometry x="790" y="-190" width="192.5" height="100" as="geometry" />
        </mxCell>
        <mxCell id="mc-ZGPXS3bzHDEpSmZdM-55" style="edgeStyle=orthogonalEdgeStyle;rounded=0;orthogonalLoop=1;jettySize=auto;html=1;startArrow=none;startFill=0;endArrow=classic;endFill=1;entryX=1;entryY=0.5;entryDx=0;entryDy=0;" parent="1" source="mc-ZGPXS3bzHDEpSmZdM-5" target="mc-ZGPXS3bzHDEpSmZdM-3" edge="1">
          <mxGeometry relative="1" as="geometry">
            <mxPoint x="970" y="75" as="targetPoint" />
            <Array as="points">
              <mxPoint x="1448" y="-140" />
            </Array>
          </mxGeometry>
        </mxCell>
        <mxCell id="mc-ZGPXS3bzHDEpSmZdM-56" value="идеолог первого&lt;br&gt;президентского срока" style="edgeLabel;html=1;align=center;verticalAlign=middle;resizable=0;points=[];" parent="mc-ZGPXS3bzHDEpSmZdM-55" vertex="1" connectable="0">
          <mxGeometry x="-0.915" y="-3" relative="1" as="geometry">
            <mxPoint x="-3" y="-9" as="offset" />
          </mxGeometry>
        </mxCell>
        <mxCell id="mc-ZGPXS3bzHDEpSmZdM-5" value="&lt;b&gt;Александр Волошин&lt;br&gt;&lt;/b&gt;глава администрации Президента 1999-2003, тайный координатор либеральных и прозападных сил" style="rounded=0;whiteSpace=wrap;html=1;" parent="1" vertex="1">
          <mxGeometry x="1400" y="290" width="155" height="90" as="geometry" />
        </mxCell>
        <mxCell id="mc-ZGPXS3bzHDEpSmZdM-20" style="edgeStyle=orthogonalEdgeStyle;rounded=0;orthogonalLoop=1;jettySize=auto;html=1;exitX=0;exitY=0.5;exitDx=0;exitDy=0;entryX=1;entryY=0.25;entryDx=0;entryDy=0;startArrow=none;startFill=0;endArrow=classic;endFill=1;" parent="1" source="mc-ZGPXS3bzHDEpSmZdM-6" target="mc-ZGPXS3bzHDEpSmZdM-19" edge="1">
          <mxGeometry relative="1" as="geometry" />
        </mxCell>
        <mxCell id="mc-ZGPXS3bzHDEpSmZdM-6" value="&lt;b&gt;Евгений Примаков&lt;br&gt;&lt;/b&gt;кандидат в члены Политбюро ЦК КПСС, чекист, главный кандидат на пост президента после Ельцына&lt;br&gt;глава фракции ОВР" style="rounded=0;whiteSpace=wrap;html=1;" parent="1" vertex="1">
          <mxGeometry x="612.5" y="780" width="175" height="110" as="geometry" />
        </mxCell>
        <mxCell id="mc-ZGPXS3bzHDEpSmZdM-8" style="edgeStyle=orthogonalEdgeStyle;rounded=0;orthogonalLoop=1;jettySize=auto;html=1;entryX=0.5;entryY=1;entryDx=0;entryDy=0;" parent="1" source="mc-ZGPXS3bzHDEpSmZdM-7" target="mc-ZGPXS3bzHDEpSmZdM-6" edge="1">
          <mxGeometry relative="1" as="geometry" />
        </mxCell>
        <mxCell id="mc-ZGPXS3bzHDEpSmZdM-9" value="" style="edgeStyle=orthogonalEdgeStyle;rounded=0;orthogonalLoop=1;jettySize=auto;html=1;" parent="1" source="mc-ZGPXS3bzHDEpSmZdM-7" target="mc-ZGPXS3bzHDEpSmZdM-6" edge="1">
          <mxGeometry relative="1" as="geometry" />
        </mxCell>
        <mxCell id="mc-ZGPXS3bzHDEpSmZdM-11" value="Лужков поддерживал Примакова в надежде стать&amp;nbsp;&lt;br&gt;президентам после его срока" style="edgeLabel;html=1;align=center;verticalAlign=middle;resizable=0;points=[];" parent="mc-ZGPXS3bzHDEpSmZdM-9" vertex="1" connectable="0">
          <mxGeometry x="-0.2265" relative="1" as="geometry">
            <mxPoint as="offset" />
          </mxGeometry>
        </mxCell>
        <mxCell id="mc-ZGPXS3bzHDEpSmZdM-21" style="edgeStyle=orthogonalEdgeStyle;rounded=0;orthogonalLoop=1;jettySize=auto;html=1;entryX=0.5;entryY=1;entryDx=0;entryDy=0;startArrow=none;startFill=0;endArrow=classic;endFill=1;" parent="1" source="mc-ZGPXS3bzHDEpSmZdM-7" target="mc-ZGPXS3bzHDEpSmZdM-19" edge="1">
          <mxGeometry relative="1" as="geometry" />
        </mxCell>
        <mxCell id="mc-ZGPXS3bzHDEpSmZdM-22" value="финансовая&lt;br&gt;поддержка&lt;br&gt;в парламентских&lt;br&gt;выборах" style="edgeLabel;html=1;align=center;verticalAlign=middle;resizable=0;points=[];" parent="mc-ZGPXS3bzHDEpSmZdM-21" vertex="1" connectable="0">
          <mxGeometry x="-0.5304" relative="1" as="geometry">
            <mxPoint x="-46" y="-40" as="offset" />
          </mxGeometry>
        </mxCell>
        <mxCell id="mc-ZGPXS3bzHDEpSmZdM-7" value="&lt;b&gt;Юрий Лужков&lt;br&gt;&lt;/b&gt;мэр Москвы, хозяйственник с амбициями президента&amp;nbsp;" style="rounded=0;whiteSpace=wrap;html=1;" parent="1" vertex="1">
          <mxGeometry x="617" y="980" width="166" height="80" as="geometry" />
        </mxCell>
        <mxCell id="mc-ZGPXS3bzHDEpSmZdM-13" style="edgeStyle=orthogonalEdgeStyle;rounded=0;orthogonalLoop=1;jettySize=auto;html=1;entryX=0;entryY=0.5;entryDx=0;entryDy=0;endArrow=none;endFill=0;startArrow=diamondThin;startFill=0;" parent="1" source="mc-ZGPXS3bzHDEpSmZdM-12" target="mc-ZGPXS3bzHDEpSmZdM-1" edge="1">
          <mxGeometry relative="1" as="geometry" />
        </mxCell>
        <mxCell id="mc-ZGPXS3bzHDEpSmZdM-12" value="&lt;b&gt;&quot;Семья&quot;&lt;/b&gt;" style="rounded=0;whiteSpace=wrap;html=1;fillColor=#fff2cc;strokeColor=#d6b656;" parent="1" vertex="1">
          <mxGeometry x="260" y="-80" width="120" height="60" as="geometry" />
        </mxCell>
        <mxCell id="mc-ZGPXS3bzHDEpSmZdM-14" value="&lt;b&gt;Татьяна Дьяченко&lt;/b&gt;&lt;br&gt;дочь Ельцына" style="rounded=0;whiteSpace=wrap;html=1;" parent="1" vertex="1">
          <mxGeometry x="260" y="30" width="120" height="60" as="geometry" />
        </mxCell>
        <mxCell id="mc-ZGPXS3bzHDEpSmZdM-15" style="edgeStyle=orthogonalEdgeStyle;rounded=0;orthogonalLoop=1;jettySize=auto;html=1;entryX=0.5;entryY=0;entryDx=0;entryDy=0;endArrow=none;endFill=0;startArrow=diamondThin;startFill=0;exitX=0.5;exitY=1;exitDx=0;exitDy=0;" parent="1" source="mc-ZGPXS3bzHDEpSmZdM-12" target="mc-ZGPXS3bzHDEpSmZdM-14" edge="1">
          <mxGeometry relative="1" as="geometry">
            <mxPoint x="390" y="-40" as="sourcePoint" />
            <mxPoint x="465" y="-40" as="targetPoint" />
          </mxGeometry>
        </mxCell>
        <mxCell id="mc-ZGPXS3bzHDEpSmZdM-16" value="&lt;b&gt;Валентин Юмашев&lt;/b&gt;&lt;br&gt;глава администрации Ельцына 1997-1998" style="rounded=0;whiteSpace=wrap;html=1;" parent="1" vertex="1">
          <mxGeometry x="90" y="-80" width="120" height="60" as="geometry" />
        </mxCell>
        <mxCell id="mc-ZGPXS3bzHDEpSmZdM-17" style="edgeStyle=orthogonalEdgeStyle;rounded=0;orthogonalLoop=1;jettySize=auto;html=1;entryX=1;entryY=0.5;entryDx=0;entryDy=0;endArrow=none;endFill=0;startArrow=diamondThin;startFill=0;exitX=0;exitY=0.5;exitDx=0;exitDy=0;" parent="1" source="mc-ZGPXS3bzHDEpSmZdM-12" target="mc-ZGPXS3bzHDEpSmZdM-16" edge="1">
          <mxGeometry relative="1" as="geometry">
            <mxPoint x="330" y="-10" as="sourcePoint" />
            <mxPoint x="330" y="40" as="targetPoint" />
          </mxGeometry>
        </mxCell>
        <mxCell id="mc-ZGPXS3bzHDEpSmZdM-18" value="&lt;b&gt;Единство&lt;/b&gt;&lt;br&gt;после объединения с ОВР&lt;br&gt;&lt;b&gt;Единая Россия&lt;/b&gt;" style="rounded=0;whiteSpace=wrap;html=1;fillColor=#fff2cc;strokeColor=#d6b656;" parent="1" vertex="1">
          <mxGeometry x="910" y="520" width="130" height="70" as="geometry" />
        </mxCell>
        <mxCell id="mc-ZGPXS3bzHDEpSmZdM-19" value="&lt;b&gt;Отечество - вся Россия&lt;/b&gt;" style="rounded=0;whiteSpace=wrap;html=1;fillColor=#fff2cc;strokeColor=#d6b656;" parent="1" vertex="1">
          <mxGeometry x="430" y="740" width="120" height="60" as="geometry" />
        </mxCell>
        <mxCell id="mc-ZGPXS3bzHDEpSmZdM-24" style="edgeStyle=orthogonalEdgeStyle;rounded=0;orthogonalLoop=1;jettySize=auto;html=1;startArrow=none;startFill=0;endArrow=classic;endFill=1;entryX=0;entryY=0.25;entryDx=0;entryDy=0;" parent="1" source="mc-ZGPXS3bzHDEpSmZdM-23" target="mc-ZGPXS3bzHDEpSmZdM-18" edge="1">
          <mxGeometry relative="1" as="geometry">
            <mxPoint x="840" y="540" as="targetPoint" />
            <Array as="points">
              <mxPoint x="850" y="220" />
              <mxPoint x="850" y="538" />
            </Array>
          </mxGeometry>
        </mxCell>
        <mxCell id="mc-ZGPXS3bzHDEpSmZdM-25" value="стоял у истоков,&lt;br&gt;уговаривал&lt;br&gt;присоединться&lt;br&gt;губернаторов" style="edgeLabel;html=1;align=center;verticalAlign=middle;resizable=0;points=[];" parent="mc-ZGPXS3bzHDEpSmZdM-24" vertex="1" connectable="0">
          <mxGeometry x="-0.6932" y="2" relative="1" as="geometry">
            <mxPoint x="-2" y="72" as="offset" />
          </mxGeometry>
        </mxCell>
        <mxCell id="mc-ZGPXS3bzHDEpSmZdM-73" style="edgeStyle=orthogonalEdgeStyle;rounded=0;orthogonalLoop=1;jettySize=auto;html=1;startArrow=none;startFill=0;endArrow=classic;endFill=1;" parent="1" source="mc-ZGPXS3bzHDEpSmZdM-23" target="mc-ZGPXS3bzHDEpSmZdM-34" edge="1">
          <mxGeometry relative="1" as="geometry" />
        </mxCell>
        <mxCell id="mc-ZGPXS3bzHDEpSmZdM-74" value="владелец" style="edgeLabel;html=1;align=center;verticalAlign=middle;resizable=0;points=[];" parent="mc-ZGPXS3bzHDEpSmZdM-73" vertex="1" connectable="0">
          <mxGeometry x="0.3156" y="1" relative="1" as="geometry">
            <mxPoint as="offset" />
          </mxGeometry>
        </mxCell>
        <mxCell id="yFaP6xXPZnmftgV53l2E-11" style="edgeStyle=orthogonalEdgeStyle;rounded=0;orthogonalLoop=1;jettySize=auto;html=1;exitX=0.25;exitY=0;exitDx=0;exitDy=0;entryX=1;entryY=0.25;entryDx=0;entryDy=0;" edge="1" parent="1" source="mc-ZGPXS3bzHDEpSmZdM-23" target="yFaP6xXPZnmftgV53l2E-8">
          <mxGeometry relative="1" as="geometry">
            <Array as="points">
              <mxPoint x="930" y="178" />
              <mxPoint x="715" y="178" />
            </Array>
          </mxGeometry>
        </mxCell>
        <mxCell id="yFaP6xXPZnmftgV53l2E-12" value="Обвинён в заказе на убийство&lt;br&gt;судился" style="edgeLabel;html=1;align=center;verticalAlign=middle;resizable=0;points=[];" vertex="1" connectable="0" parent="yFaP6xXPZnmftgV53l2E-11">
          <mxGeometry y="-3" relative="1" as="geometry">
            <mxPoint as="offset" />
          </mxGeometry>
        </mxCell>
        <mxCell id="mc-ZGPXS3bzHDEpSmZdM-23" value="&lt;b&gt;Борис Березовский&lt;/b&gt;&lt;br&gt;олигарх, убит" style="rounded=0;whiteSpace=wrap;html=1;" parent="1" vertex="1">
          <mxGeometry x="900" y="190" width="120" height="60" as="geometry" />
        </mxCell>
        <mxCell id="mc-ZGPXS3bzHDEpSmZdM-27" style="edgeStyle=orthogonalEdgeStyle;rounded=0;orthogonalLoop=1;jettySize=auto;html=1;entryX=0.5;entryY=1;entryDx=0;entryDy=0;startArrow=none;startFill=0;endArrow=classic;endFill=1;" parent="1" source="mc-ZGPXS3bzHDEpSmZdM-26" target="mc-ZGPXS3bzHDEpSmZdM-5" edge="1">
          <mxGeometry relative="1" as="geometry">
            <Array as="points">
              <mxPoint x="1265" y="390" />
              <mxPoint x="1265" y="400" />
              <mxPoint x="1478" y="400" />
            </Array>
          </mxGeometry>
        </mxCell>
        <mxCell id="mc-ZGPXS3bzHDEpSmZdM-28" value="помощник&lt;br&gt;позже заместитель" style="edgeLabel;html=1;align=center;verticalAlign=middle;resizable=0;points=[];" parent="mc-ZGPXS3bzHDEpSmZdM-27" vertex="1" connectable="0">
          <mxGeometry x="-0.3118" y="-2" relative="1" as="geometry">
            <mxPoint x="18" y="-2" as="offset" />
          </mxGeometry>
        </mxCell>
        <mxCell id="mc-ZGPXS3bzHDEpSmZdM-29" style="edgeStyle=orthogonalEdgeStyle;rounded=0;orthogonalLoop=1;jettySize=auto;html=1;entryX=0.5;entryY=0;entryDx=0;entryDy=0;startArrow=none;startFill=0;endArrow=classic;endFill=1;" parent="1" source="mc-ZGPXS3bzHDEpSmZdM-26" target="mc-ZGPXS3bzHDEpSmZdM-18" edge="1">
          <mxGeometry relative="1" as="geometry" />
        </mxCell>
        <mxCell id="mc-ZGPXS3bzHDEpSmZdM-30" value="занимался&lt;br&gt;предвыборной&lt;br&gt;кампанией" style="edgeLabel;html=1;align=center;verticalAlign=middle;resizable=0;points=[];" parent="mc-ZGPXS3bzHDEpSmZdM-29" vertex="1" connectable="0">
          <mxGeometry x="-0.1979" y="-1" relative="1" as="geometry">
            <mxPoint x="30" y="-24" as="offset" />
          </mxGeometry>
        </mxCell>
        <mxCell id="mc-ZGPXS3bzHDEpSmZdM-26" value="&lt;b&gt;Владислав Сурков&lt;br&gt;&lt;/b&gt;заместитель руководителя администрации Президента" style="rounded=0;whiteSpace=wrap;html=1;" parent="1" vertex="1">
          <mxGeometry x="1010" y="350" width="120" height="80" as="geometry" />
        </mxCell>
        <mxCell id="mc-ZGPXS3bzHDEpSmZdM-46" style="edgeStyle=orthogonalEdgeStyle;rounded=0;orthogonalLoop=1;jettySize=auto;html=1;entryX=0.25;entryY=0;entryDx=0;entryDy=0;startArrow=none;startFill=0;endArrow=classic;endFill=1;" parent="1" source="mc-ZGPXS3bzHDEpSmZdM-31" target="mc-ZGPXS3bzHDEpSmZdM-18" edge="1">
          <mxGeometry relative="1" as="geometry" />
        </mxCell>
        <mxCell id="mc-ZGPXS3bzHDEpSmZdM-47" value="возглавил парламентскую&lt;br&gt;фракцию" style="edgeLabel;html=1;align=center;verticalAlign=middle;resizable=0;points=[];" parent="mc-ZGPXS3bzHDEpSmZdM-46" vertex="1" connectable="0">
          <mxGeometry x="-0.7213" y="-1" relative="1" as="geometry">
            <mxPoint x="1" y="12" as="offset" />
          </mxGeometry>
        </mxCell>
        <mxCell id="mc-ZGPXS3bzHDEpSmZdM-60" style="edgeStyle=orthogonalEdgeStyle;rounded=0;orthogonalLoop=1;jettySize=auto;html=1;entryX=1;entryY=0.5;entryDx=0;entryDy=0;startArrow=none;startFill=0;endArrow=classic;endFill=1;" parent="1" source="mc-ZGPXS3bzHDEpSmZdM-31" target="mc-ZGPXS3bzHDEpSmZdM-58" edge="1">
          <mxGeometry relative="1" as="geometry">
            <Array as="points">
              <mxPoint x="830" y="370" />
              <mxPoint x="830" y="490" />
            </Array>
          </mxGeometry>
        </mxCell>
        <mxCell id="mc-ZGPXS3bzHDEpSmZdM-31" value="&lt;b&gt;Сергей Шойгу&lt;/b&gt;&lt;br&gt;глава МЧС&lt;br&gt;позже Министр Обороны" style="rounded=0;whiteSpace=wrap;html=1;" parent="1" vertex="1">
          <mxGeometry x="870" y="340" width="120" height="60" as="geometry" />
        </mxCell>
        <mxCell id="mc-ZGPXS3bzHDEpSmZdM-34" value="&lt;b&gt;ОРТ&lt;/b&gt;" style="rounded=0;whiteSpace=wrap;html=1;fillColor=#dae8fc;strokeColor=#6c8ebf;" parent="1" vertex="1">
          <mxGeometry x="640" y="200.0000000000001" width="120" height="60" as="geometry" />
        </mxCell>
        <mxCell id="mc-ZGPXS3bzHDEpSmZdM-38" style="edgeStyle=orthogonalEdgeStyle;rounded=0;orthogonalLoop=1;jettySize=auto;html=1;startArrow=none;startFill=0;endArrow=classic;endFill=1;" parent="1" source="mc-ZGPXS3bzHDEpSmZdM-37" target="mc-ZGPXS3bzHDEpSmZdM-34" edge="1">
          <mxGeometry relative="1" as="geometry" />
        </mxCell>
        <mxCell id="mc-ZGPXS3bzHDEpSmZdM-39" value="вёл главное шоу" style="edgeLabel;html=1;align=center;verticalAlign=middle;resizable=0;points=[];" parent="mc-ZGPXS3bzHDEpSmZdM-38" vertex="1" connectable="0">
          <mxGeometry x="-0.7233" y="-3" relative="1" as="geometry">
            <mxPoint x="37" y="-3" as="offset" />
          </mxGeometry>
        </mxCell>
        <mxCell id="mc-ZGPXS3bzHDEpSmZdM-37" value="&lt;b&gt;Сергей Доренко&lt;/b&gt;&lt;br&gt;телеведущий" style="rounded=0;whiteSpace=wrap;html=1;" parent="1" vertex="1">
          <mxGeometry x="390.00000000000006" y="240.0000000000001" width="120" height="60" as="geometry" />
        </mxCell>
        <mxCell id="mc-ZGPXS3bzHDEpSmZdM-41" style="edgeStyle=orthogonalEdgeStyle;rounded=0;orthogonalLoop=1;jettySize=auto;html=1;entryX=0.75;entryY=0;entryDx=0;entryDy=0;startArrow=none;startFill=0;endArrow=classic;endFill=1;" parent="1" source="mc-ZGPXS3bzHDEpSmZdM-40" target="mc-ZGPXS3bzHDEpSmZdM-19" edge="1">
          <mxGeometry relative="1" as="geometry" />
        </mxCell>
        <mxCell id="mc-ZGPXS3bzHDEpSmZdM-42" value="депутат,&lt;br&gt;позже&lt;br&gt;глава фракции&lt;br&gt;после Примакова" style="edgeLabel;html=1;align=center;verticalAlign=middle;resizable=0;points=[];" parent="mc-ZGPXS3bzHDEpSmZdM-41" vertex="1" connectable="0">
          <mxGeometry x="-0.3647" y="-2" relative="1" as="geometry">
            <mxPoint x="2" y="-42" as="offset" />
          </mxGeometry>
        </mxCell>
        <mxCell id="mc-ZGPXS3bzHDEpSmZdM-48" style="edgeStyle=orthogonalEdgeStyle;rounded=0;orthogonalLoop=1;jettySize=auto;html=1;entryX=0;entryY=0.75;entryDx=0;entryDy=0;startArrow=none;startFill=0;endArrow=classic;endFill=1;" parent="1" source="mc-ZGPXS3bzHDEpSmZdM-40" target="mc-ZGPXS3bzHDEpSmZdM-18" edge="1">
          <mxGeometry relative="1" as="geometry" />
        </mxCell>
        <mxCell id="mc-ZGPXS3bzHDEpSmZdM-49" value="договорился&lt;br&gt;об объединении&lt;br&gt;Единства и ОВР" style="edgeLabel;html=1;align=center;verticalAlign=middle;resizable=0;points=[];" parent="mc-ZGPXS3bzHDEpSmZdM-48" vertex="1" connectable="0">
          <mxGeometry x="-0.3472" y="-1" relative="1" as="geometry">
            <mxPoint x="-17" y="1" as="offset" />
          </mxGeometry>
        </mxCell>
        <mxCell id="mc-ZGPXS3bzHDEpSmZdM-66" style="edgeStyle=orthogonalEdgeStyle;rounded=0;orthogonalLoop=1;jettySize=auto;html=1;entryX=1;entryY=0.75;entryDx=0;entryDy=0;startArrow=none;startFill=0;endArrow=classic;endFill=1;" parent="1" source="mc-ZGPXS3bzHDEpSmZdM-40" target="mc-ZGPXS3bzHDEpSmZdM-58" edge="1">
          <mxGeometry relative="1" as="geometry" />
        </mxCell>
        <mxCell id="mc-ZGPXS3bzHDEpSmZdM-40" value="&lt;b&gt;Вячеслав Володин&lt;/b&gt;&lt;br&gt;политтехнолог&lt;br&gt;будущий председатель ГД" style="rounded=0;whiteSpace=wrap;html=1;" parent="1" vertex="1">
          <mxGeometry x="550" y="510" width="120" height="60" as="geometry" />
        </mxCell>
        <mxCell id="mc-ZGPXS3bzHDEpSmZdM-52" style="edgeStyle=orthogonalEdgeStyle;rounded=0;orthogonalLoop=1;jettySize=auto;html=1;entryX=0.25;entryY=0;entryDx=0;entryDy=0;startArrow=none;startFill=0;endArrow=classic;endFill=1;" parent="1" source="mc-ZGPXS3bzHDEpSmZdM-50" target="mc-ZGPXS3bzHDEpSmZdM-3" edge="1">
          <mxGeometry relative="1" as="geometry">
            <Array as="points">
              <mxPoint x="780" y="-290" />
              <mxPoint x="780" y="-250" />
              <mxPoint x="838" y="-250" />
            </Array>
          </mxGeometry>
        </mxCell>
        <mxCell id="mc-ZGPXS3bzHDEpSmZdM-53" value="друг" style="edgeLabel;html=1;align=center;verticalAlign=middle;resizable=0;points=[];" parent="mc-ZGPXS3bzHDEpSmZdM-52" vertex="1" connectable="0">
          <mxGeometry x="-0.7143" y="1" relative="1" as="geometry">
            <mxPoint as="offset" />
          </mxGeometry>
        </mxCell>
        <mxCell id="mc-ZGPXS3bzHDEpSmZdM-50" value="&lt;b&gt;Сергей Пугачёв&lt;/b&gt;&lt;br&gt;банкир" style="whiteSpace=wrap;html=1;" parent="1" vertex="1">
          <mxGeometry x="640" y="-320" width="120" height="60" as="geometry" />
        </mxCell>
        <mxCell id="mc-ZGPXS3bzHDEpSmZdM-59" style="edgeStyle=orthogonalEdgeStyle;rounded=0;orthogonalLoop=1;jettySize=auto;html=1;startArrow=none;startFill=0;endArrow=classic;endFill=1;" parent="1" source="mc-ZGPXS3bzHDEpSmZdM-57" target="mc-ZGPXS3bzHDEpSmZdM-58" edge="1">
          <mxGeometry relative="1" as="geometry" />
        </mxCell>
        <mxCell id="mc-ZGPXS3bzHDEpSmZdM-57" value="&lt;b&gt;Игорь Иванов&lt;/b&gt;&lt;br&gt;министр иностранных дел 1998 - 2004" style="whiteSpace=wrap;html=1;" parent="1" vertex="1">
          <mxGeometry x="530" y="330" width="120" height="60" as="geometry" />
        </mxCell>
        <mxCell id="mc-ZGPXS3bzHDEpSmZdM-58" value="&lt;b&gt;Правительство&lt;/b&gt;" style="whiteSpace=wrap;html=1;fillColor=#d5e8d4;strokeColor=#82b366;" parent="1" vertex="1">
          <mxGeometry x="310" y="460" width="120" height="60" as="geometry" />
        </mxCell>
        <mxCell id="mc-ZGPXS3bzHDEpSmZdM-62" style="edgeStyle=orthogonalEdgeStyle;rounded=0;orthogonalLoop=1;jettySize=auto;html=1;entryX=0.25;entryY=0;entryDx=0;entryDy=0;startArrow=none;startFill=0;endArrow=classic;endFill=1;" parent="1" source="mc-ZGPXS3bzHDEpSmZdM-61" target="mc-ZGPXS3bzHDEpSmZdM-58" edge="1">
          <mxGeometry relative="1" as="geometry" />
        </mxCell>
        <mxCell id="mc-ZGPXS3bzHDEpSmZdM-68" style="edgeStyle=orthogonalEdgeStyle;rounded=0;orthogonalLoop=1;jettySize=auto;html=1;entryX=0.75;entryY=1;entryDx=0;entryDy=0;startArrow=none;startFill=0;endArrow=classic;endFill=1;" parent="1" source="mc-ZGPXS3bzHDEpSmZdM-61" target="mc-ZGPXS3bzHDEpSmZdM-67" edge="1">
          <mxGeometry relative="1" as="geometry" />
        </mxCell>
        <mxCell id="mc-ZGPXS3bzHDEpSmZdM-71" value="член команды" style="edgeLabel;html=1;align=center;verticalAlign=middle;resizable=0;points=[];" parent="mc-ZGPXS3bzHDEpSmZdM-68" vertex="1" connectable="0">
          <mxGeometry x="-0.3022" y="-2" relative="1" as="geometry">
            <mxPoint x="-1" as="offset" />
          </mxGeometry>
        </mxCell>
        <mxCell id="mc-ZGPXS3bzHDEpSmZdM-61" value="&lt;b&gt;Герман Греф&lt;/b&gt;&lt;br&gt;министр экономического развития&lt;br&gt;глава центра стратегических разработок" style="whiteSpace=wrap;html=1;" parent="1" vertex="1">
          <mxGeometry x="130" y="290" width="140" height="100" as="geometry" />
        </mxCell>
        <mxCell id="mc-ZGPXS3bzHDEpSmZdM-64" style="edgeStyle=orthogonalEdgeStyle;rounded=0;orthogonalLoop=1;jettySize=auto;html=1;entryX=0;entryY=0;entryDx=0;entryDy=0;startArrow=none;startFill=0;endArrow=classic;endFill=1;" parent="1" source="mc-ZGPXS3bzHDEpSmZdM-63" target="mc-ZGPXS3bzHDEpSmZdM-58" edge="1">
          <mxGeometry relative="1" as="geometry" />
        </mxCell>
        <mxCell id="mc-ZGPXS3bzHDEpSmZdM-69" style="edgeStyle=orthogonalEdgeStyle;rounded=0;orthogonalLoop=1;jettySize=auto;html=1;startArrow=none;startFill=0;endArrow=classic;endFill=1;entryX=0.5;entryY=1;entryDx=0;entryDy=0;" parent="1" source="mc-ZGPXS3bzHDEpSmZdM-63" target="mc-ZGPXS3bzHDEpSmZdM-67" edge="1">
          <mxGeometry relative="1" as="geometry">
            <mxPoint x="-40" y="370" as="targetPoint" />
            <Array as="points">
              <mxPoint x="30" y="440" />
            </Array>
          </mxGeometry>
        </mxCell>
        <mxCell id="mc-ZGPXS3bzHDEpSmZdM-70" value="член команды" style="edgeLabel;html=1;align=center;verticalAlign=middle;resizable=0;points=[];" parent="mc-ZGPXS3bzHDEpSmZdM-69" vertex="1" connectable="0">
          <mxGeometry x="-0.3667" y="1" relative="1" as="geometry">
            <mxPoint as="offset" />
          </mxGeometry>
        </mxCell>
        <mxCell id="mc-ZGPXS3bzHDEpSmZdM-63" value="&lt;b&gt;Алексей Кудрин&lt;/b&gt;&lt;br&gt;министр финансов" style="whiteSpace=wrap;html=1;" parent="1" vertex="1">
          <mxGeometry x="70" y="410" width="120" height="60" as="geometry" />
        </mxCell>
        <mxCell id="mc-ZGPXS3bzHDEpSmZdM-67" value="&lt;b&gt;Анатолий Собчак&lt;/b&gt;&lt;br&gt;мэр Санкт-Петербурга" style="rounded=0;whiteSpace=wrap;html=1;" parent="1" vertex="1">
          <mxGeometry x="-30" y="220" width="120" height="60" as="geometry" />
        </mxCell>
        <mxCell id="yFaP6xXPZnmftgV53l2E-31" style="edgeStyle=orthogonalEdgeStyle;rounded=0;orthogonalLoop=1;jettySize=auto;html=1;startArrow=none;startFill=0;endArrow=classic;endFill=1;" edge="1" parent="1" source="mc-ZGPXS3bzHDEpSmZdM-76">
          <mxGeometry relative="1" as="geometry">
            <mxPoint x="980" y="190" as="targetPoint" />
            <Array as="points">
              <mxPoint x="980" y="190" />
            </Array>
          </mxGeometry>
        </mxCell>
        <mxCell id="yFaP6xXPZnmftgV53l2E-32" value="выкупил долю&lt;br&gt;после запрета&lt;br&gt;Березовскому&lt;br&gt;руководить редакцией" style="edgeLabel;html=1;align=center;verticalAlign=middle;resizable=0;points=[];" vertex="1" connectable="0" parent="yFaP6xXPZnmftgV53l2E-31">
          <mxGeometry x="-0.296" y="1" relative="1" as="geometry">
            <mxPoint x="-1" y="2" as="offset" />
          </mxGeometry>
        </mxCell>
        <mxCell id="mc-ZGPXS3bzHDEpSmZdM-76" value="&lt;b&gt;Роман Абрамович&lt;/b&gt;&lt;br&gt;олигарх" style="whiteSpace=wrap;html=1;" parent="1" vertex="1">
          <mxGeometry x="920" y="50" width="120" height="60" as="geometry" />
        </mxCell>
        <mxCell id="mc-ZGPXS3bzHDEpSmZdM-80" style="edgeStyle=orthogonalEdgeStyle;rounded=0;orthogonalLoop=1;jettySize=auto;html=1;entryX=0.25;entryY=1;entryDx=0;entryDy=0;startArrow=none;startFill=0;endArrow=classic;endFill=1;" parent="1" source="mc-ZGPXS3bzHDEpSmZdM-79" target="mc-ZGPXS3bzHDEpSmZdM-58" edge="1">
          <mxGeometry relative="1" as="geometry" />
        </mxCell>
        <mxCell id="mc-ZGPXS3bzHDEpSmZdM-79" value="&lt;b&gt;Михаил Касьянов&lt;br&gt;&lt;/b&gt;до Путина министр фининсов, после&lt;br&gt;&lt;u&gt;премьер-министр&lt;/u&gt;" style="whiteSpace=wrap;html=1;" parent="1" vertex="1">
          <mxGeometry x="70" y="560" width="120" height="60" as="geometry" />
        </mxCell>
        <mxCell id="yFaP6xXPZnmftgV53l2E-26" style="edgeStyle=orthogonalEdgeStyle;rounded=0;orthogonalLoop=1;jettySize=auto;html=1;entryX=0.5;entryY=1;entryDx=0;entryDy=0;startArrow=none;startFill=0;endArrow=classic;endFill=1;" edge="1" parent="1" source="yFaP6xXPZnmftgV53l2E-4" target="mc-ZGPXS3bzHDEpSmZdM-58">
          <mxGeometry relative="1" as="geometry" />
        </mxCell>
        <mxCell id="yFaP6xXPZnmftgV53l2E-4" value="&lt;b&gt;Николай Патрушев&lt;/b&gt;&lt;br&gt;директор ФСБ" style="whiteSpace=wrap;html=1;" vertex="1" parent="1">
          <mxGeometry x="200" y="690" width="120" height="60" as="geometry" />
        </mxCell>
        <mxCell id="yFaP6xXPZnmftgV53l2E-5" value="&lt;b&gt;Герхард Шрёдер&lt;/b&gt;&lt;br&gt;канцлер Германии на 2002 год" style="whiteSpace=wrap;html=1;" vertex="1" parent="1">
          <mxGeometry x="410" y="-290" width="120" height="60" as="geometry" />
        </mxCell>
        <mxCell id="yFaP6xXPZnmftgV53l2E-6" value="&lt;b&gt;НТВ&lt;/b&gt;" style="whiteSpace=wrap;html=1;fillColor=#dae8fc;strokeColor=#6c8ebf;" vertex="1" parent="1">
          <mxGeometry x="120" y="200" width="120" height="60" as="geometry" />
        </mxCell>
        <mxCell id="yFaP6xXPZnmftgV53l2E-9" style="edgeStyle=orthogonalEdgeStyle;rounded=0;orthogonalLoop=1;jettySize=auto;html=1;entryX=1;entryY=0.5;entryDx=0;entryDy=0;" edge="1" parent="1" source="yFaP6xXPZnmftgV53l2E-8" target="yFaP6xXPZnmftgV53l2E-6">
          <mxGeometry relative="1" as="geometry" />
        </mxCell>
        <mxCell id="yFaP6xXPZnmftgV53l2E-10" value="Основал и владел" style="edgeLabel;html=1;align=center;verticalAlign=middle;resizable=0;points=[];" vertex="1" connectable="0" parent="yFaP6xXPZnmftgV53l2E-9">
          <mxGeometry x="-0.1333" y="-1" relative="1" as="geometry">
            <mxPoint as="offset" />
          </mxGeometry>
        </mxCell>
        <mxCell id="yFaP6xXPZnmftgV53l2E-8" value="&lt;b&gt;Владимир Гусинский&lt;/b&gt;&lt;br&gt;преследовался за то, что портил репутацию кредиторов НТВ, чтоы не платить долги" style="whiteSpace=wrap;html=1;" vertex="1" parent="1">
          <mxGeometry x="350" y="160" width="180" height="70" as="geometry" />
        </mxCell>
        <mxCell id="yFaP6xXPZnmftgV53l2E-20" style="edgeStyle=orthogonalEdgeStyle;rounded=0;orthogonalLoop=1;jettySize=auto;html=1;exitX=1;exitY=1;exitDx=0;exitDy=0;entryX=0;entryY=0;entryDx=0;entryDy=0;startArrow=none;startFill=0;endArrow=classic;endFill=1;" edge="1" parent="1" source="yFaP6xXPZnmftgV53l2E-13" target="yFaP6xXPZnmftgV53l2E-6">
          <mxGeometry relative="1" as="geometry" />
        </mxCell>
        <mxCell id="yFaP6xXPZnmftgV53l2E-21" value="забрал компанию&lt;br&gt;у Гусинского" style="edgeLabel;html=1;align=center;verticalAlign=middle;resizable=0;points=[];" vertex="1" connectable="0" parent="yFaP6xXPZnmftgV53l2E-20">
          <mxGeometry x="-0.2686" y="1" relative="1" as="geometry">
            <mxPoint x="-31" as="offset" />
          </mxGeometry>
        </mxCell>
        <mxCell id="yFaP6xXPZnmftgV53l2E-13" value="&lt;b&gt;Альфред Кох&lt;/b&gt;&lt;br&gt;гендиректор &quot;Газпром-Медиа&quot;&lt;br&gt;диссидент, возбождено уголовное дело" style="whiteSpace=wrap;html=1;" vertex="1" parent="1">
          <mxGeometry x="-80" y="50" width="120" height="90" as="geometry" />
        </mxCell>
        <mxCell id="yFaP6xXPZnmftgV53l2E-15" style="edgeStyle=orthogonalEdgeStyle;rounded=0;orthogonalLoop=1;jettySize=auto;html=1;entryX=0;entryY=0;entryDx=0;entryDy=0;" edge="1" parent="1" source="yFaP6xXPZnmftgV53l2E-14" target="mc-ZGPXS3bzHDEpSmZdM-1">
          <mxGeometry relative="1" as="geometry">
            <Array as="points">
              <mxPoint x="230" y="-100" />
              <mxPoint x="455" y="-100" />
            </Array>
          </mxGeometry>
        </mxCell>
        <mxCell id="yFaP6xXPZnmftgV53l2E-16" value="был идеологом реформ" style="edgeLabel;html=1;align=center;verticalAlign=middle;resizable=0;points=[];" vertex="1" connectable="0" parent="yFaP6xXPZnmftgV53l2E-15">
          <mxGeometry x="-0.5782" y="-1" relative="1" as="geometry">
            <mxPoint as="offset" />
          </mxGeometry>
        </mxCell>
        <mxCell id="yFaP6xXPZnmftgV53l2E-17" style="edgeStyle=orthogonalEdgeStyle;rounded=0;orthogonalLoop=1;jettySize=auto;html=1;exitX=0;exitY=0.75;exitDx=0;exitDy=0;entryX=1;entryY=0.25;entryDx=0;entryDy=0;endArrow=none;endFill=0;" edge="1" parent="1" source="yFaP6xXPZnmftgV53l2E-14" target="yFaP6xXPZnmftgV53l2E-13">
          <mxGeometry relative="1" as="geometry">
            <Array as="points">
              <mxPoint x="70" y="-145" />
              <mxPoint x="70" y="95" />
            </Array>
          </mxGeometry>
        </mxCell>
        <mxCell id="yFaP6xXPZnmftgV53l2E-18" value="друзья" style="edgeLabel;html=1;align=center;verticalAlign=middle;resizable=0;points=[];" vertex="1" connectable="0" parent="yFaP6xXPZnmftgV53l2E-17">
          <mxGeometry x="-0.6611" y="-2" relative="1" as="geometry">
            <mxPoint as="offset" />
          </mxGeometry>
        </mxCell>
        <mxCell id="yFaP6xXPZnmftgV53l2E-14" value="&lt;b&gt;Анатолий Чубайс&lt;/b&gt;&lt;br&gt;зампред правительства, министр финансов" style="whiteSpace=wrap;html=1;" vertex="1" parent="1">
          <mxGeometry x="170" y="-190" width="120" height="60" as="geometry" />
        </mxCell>
        <mxCell id="yFaP6xXPZnmftgV53l2E-24" style="edgeStyle=orthogonalEdgeStyle;rounded=0;orthogonalLoop=1;jettySize=auto;html=1;entryX=1;entryY=0.5;entryDx=0;entryDy=0;startArrow=none;startFill=0;endArrow=classic;endFill=1;" edge="1" parent="1" source="yFaP6xXPZnmftgV53l2E-23" target="mc-ZGPXS3bzHDEpSmZdM-23">
          <mxGeometry relative="1" as="geometry" />
        </mxCell>
        <mxCell id="yFaP6xXPZnmftgV53l2E-25" value="помогал писать книгу&lt;br&gt;о подрыве домов" style="edgeLabel;html=1;align=center;verticalAlign=middle;resizable=0;points=[];" vertex="1" connectable="0" parent="yFaP6xXPZnmftgV53l2E-24">
          <mxGeometry x="0.25" relative="1" as="geometry">
            <mxPoint x="15" as="offset" />
          </mxGeometry>
        </mxCell>
        <mxCell id="yFaP6xXPZnmftgV53l2E-23" value="&lt;b&gt;Александр Литвиненко&lt;/b&gt;&lt;br&gt;подполковник ФСБ" style="whiteSpace=wrap;html=1;" vertex="1" parent="1">
          <mxGeometry x="1155" y="140" width="120" height="60" as="geometry" />
        </mxCell>
        <mxCell id="yFaP6xXPZnmftgV53l2E-27" value="&lt;b&gt;Анна Политковская&lt;/b&gt;&lt;br&gt;сняла интервью с предположительным участником организации терракта &quot;Норд Ост&quot;, убита" style="whiteSpace=wrap;html=1;" vertex="1" parent="1">
          <mxGeometry x="1180" y="215" width="150" height="110" as="geometry" />
        </mxCell>
        <mxCell id="yFaP6xXPZnmftgV53l2E-29" style="edgeStyle=orthogonalEdgeStyle;rounded=0;orthogonalLoop=1;jettySize=auto;html=1;startArrow=none;startFill=0;endArrow=classic;endFill=1;" edge="1" parent="1" source="yFaP6xXPZnmftgV53l2E-28">
          <mxGeometry relative="1" as="geometry">
            <mxPoint x="790" y="-190" as="targetPoint" />
            <Array as="points">
              <mxPoint x="590" y="-190" />
              <mxPoint x="590" y="-190" />
            </Array>
          </mxGeometry>
        </mxCell>
        <mxCell id="yFaP6xXPZnmftgV53l2E-28" value="&lt;b&gt;Людмила Путина&lt;/b&gt;&lt;br&gt;жена Владимира Путина" style="whiteSpace=wrap;html=1;" vertex="1" parent="1">
          <mxGeometry x="410" y="-200" width="120" height="60" as="geometry" />
        </mxCell>
        <mxCell id="yFaP6xXPZnmftgV53l2E-33" style="edgeStyle=orthogonalEdgeStyle;rounded=0;orthogonalLoop=1;jettySize=auto;html=1;exitX=1;exitY=1;exitDx=0;exitDy=0;entryX=0;entryY=0.5;entryDx=0;entryDy=0;startArrow=diamondThin;startFill=0;endArrow=none;endFill=0;" edge="1" parent="1" source="yFaP6xXPZnmftgV53l2E-30" target="mc-ZGPXS3bzHDEpSmZdM-76">
          <mxGeometry relative="1" as="geometry" />
        </mxCell>
        <mxCell id="yFaP6xXPZnmftgV53l2E-34" style="edgeStyle=orthogonalEdgeStyle;rounded=0;orthogonalLoop=1;jettySize=auto;html=1;exitX=0.75;exitY=1;exitDx=0;exitDy=0;entryX=0;entryY=0;entryDx=0;entryDy=0;startArrow=diamondThin;startFill=0;endArrow=none;endFill=0;" edge="1" parent="1" source="yFaP6xXPZnmftgV53l2E-30" target="mc-ZGPXS3bzHDEpSmZdM-23">
          <mxGeometry relative="1" as="geometry" />
        </mxCell>
        <mxCell id="yFaP6xXPZnmftgV53l2E-35" style="edgeStyle=orthogonalEdgeStyle;rounded=0;orthogonalLoop=1;jettySize=auto;html=1;exitX=0;exitY=1;exitDx=0;exitDy=0;entryX=1;entryY=0;entryDx=0;entryDy=0;startArrow=diamondThin;startFill=0;endArrow=none;endFill=0;" edge="1" parent="1" source="yFaP6xXPZnmftgV53l2E-30" target="yFaP6xXPZnmftgV53l2E-8">
          <mxGeometry relative="1" as="geometry">
            <Array as="points">
              <mxPoint x="750" y="160" />
            </Array>
          </mxGeometry>
        </mxCell>
        <mxCell id="yFaP6xXPZnmftgV53l2E-36" style="edgeStyle=orthogonalEdgeStyle;rounded=0;orthogonalLoop=1;jettySize=auto;html=1;exitX=0.25;exitY=1;exitDx=0;exitDy=0;startArrow=diamondThin;startFill=0;endArrow=none;endFill=0;entryX=1;entryY=1;entryDx=0;entryDy=0;" edge="1" parent="1" source="yFaP6xXPZnmftgV53l2E-30" target="yFaP6xXPZnmftgV53l2E-13">
          <mxGeometry relative="1" as="geometry">
            <mxPoint x="270" y="130" as="targetPoint" />
            <Array as="points">
              <mxPoint x="780" y="140" />
            </Array>
          </mxGeometry>
        </mxCell>
        <mxCell id="yFaP6xXPZnmftgV53l2E-38" style="edgeStyle=orthogonalEdgeStyle;rounded=0;orthogonalLoop=1;jettySize=auto;html=1;exitX=1;exitY=0.75;exitDx=0;exitDy=0;entryX=0;entryY=0.75;entryDx=0;entryDy=0;startArrow=diamondThin;startFill=0;endArrow=none;endFill=0;" edge="1" parent="1" source="yFaP6xXPZnmftgV53l2E-30" target="yFaP6xXPZnmftgV53l2E-37">
          <mxGeometry relative="1" as="geometry" />
        </mxCell>
        <mxCell id="yFaP6xXPZnmftgV53l2E-30" value="&lt;b&gt;Олигархи&lt;/b&gt;" style="whiteSpace=wrap;html=1;fillColor=#fff2cc;strokeColor=#d6b656;" vertex="1" parent="1">
          <mxGeometry x="750" y="10" width="120" height="60" as="geometry" />
        </mxCell>
        <mxCell id="yFaP6xXPZnmftgV53l2E-37" value="&lt;b&gt;Михаил Фридман&lt;/b&gt;&lt;br&gt;владелец &quot;Тюменской нефтяной компании&quot;" style="whiteSpace=wrap;html=1;" vertex="1" parent="1">
          <mxGeometry x="920" y="-20" width="140" height="60" as="geometry" />
        </mxCell>
        <mxCell id="yFaP6xXPZnmftgV53l2E-40" style="edgeStyle=orthogonalEdgeStyle;rounded=0;orthogonalLoop=1;jettySize=auto;html=1;entryX=0;entryY=0.75;entryDx=0;entryDy=0;startArrow=diamondThin;startFill=0;endArrow=none;endFill=0;" edge="1" parent="1" source="yFaP6xXPZnmftgV53l2E-39" target="yFaP6xXPZnmftgV53l2E-30">
          <mxGeometry relative="1" as="geometry" />
        </mxCell>
        <mxCell id="yFaP6xXPZnmftgV53l2E-39" value="&lt;b&gt;Алексей Миллер&lt;/b&gt;&lt;br&gt;глава &quot;Газпрома&quot;" style="whiteSpace=wrap;html=1;" vertex="1" parent="1">
          <mxGeometry x="410" y="60" width="120" height="60" as="geometry" />
        </mxCell>
        <mxCell id="yFaP6xXPZnmftgV53l2E-42" style="edgeStyle=orthogonalEdgeStyle;rounded=0;orthogonalLoop=1;jettySize=auto;html=1;exitX=1;exitY=0.75;exitDx=0;exitDy=0;entryX=0;entryY=0.5;entryDx=0;entryDy=0;startArrow=diamondThin;startFill=0;endArrow=none;endFill=0;" edge="1" parent="1" source="yFaP6xXPZnmftgV53l2E-41" target="yFaP6xXPZnmftgV53l2E-30">
          <mxGeometry relative="1" as="geometry" />
        </mxCell>
        <mxCell id="yFaP6xXPZnmftgV53l2E-41" value="&lt;b&gt;Михаил Ходорковский&lt;/b&gt;&lt;br&gt;бывший владелец ЮКОСа" style="whiteSpace=wrap;html=1;" vertex="1" parent="1">
          <mxGeometry x="410" y="-10" width="120" height="60" as="geometry" />
        </mxCell>
        <mxCell id="yFaP6xXPZnmftgV53l2E-43" value="&lt;b&gt;Тони Блэр&lt;/b&gt;&lt;br&gt;премьер-министр&lt;br&gt;Великобритании" style="whiteSpace=wrap;html=1;" vertex="1" parent="1">
          <mxGeometry x="240" y="-290" width="120" height="60" as="geometry" />
        </mxCell>
      </root>
    </mxGraphModel>
  </diagram>
</mxfile>
